<?xml version="1.0" encoding="UTF-8" standalone="no"?><svg xmlns="http://www.w3.org/2000/svg" xmlns:xlink="http://www.w3.org/1999/xlink" contentStyleType="text/css" height="1432px" preserveAspectRatio="none" style="width:1541px;height:1432px;background:#FFFFFF;" version="1.1" viewBox="0 0 1541 1432" width="1541px" zoomAndPan="magnify"><defs/><g><!--MD5=[389483b25b416ec219cebc080e61c499]
cluster cppmicroservices--><g id="cluster_cppmicroservices"><path d="M8.5,6 L135.5,6 A3.75,3.75 0 0 1 138,8.5 L145,29.6094 L1531.5,29.6094 A2.5,2.5 0 0 1 1534,32.1094 L1534,1422.5 A2.5,2.5 0 0 1 1531.5,1425 L8.5,1425 A2.5,2.5 0 0 1 6,1422.5 L6,8.5 A2.5,2.5 0 0 1 8.5,6 " style="stroke:#000000;stroke-width:1.5;fill:none;"/><line style="stroke:#000000;stroke-width:1.5;fill:none;" x1="6" x2="145" y1="29.6094" y2="29.6094"/><text fill="#000000" font-family="sans-serif" font-size="14" font-weight="bold" lengthAdjust="spacing" textLength="126" x="10" y="22.5332">cppmicroservices</text></g><!--MD5=[d1a1b8a7002d3019a3118a24f51229da]
cluster detail--><g id="cluster_detail"><path d="M620.5,50 L660.5,50 A3.75,3.75 0 0 1 663,52.5 L670,73.6094 L1507.5,73.6094 A2.5,2.5 0 0 1 1510,76.1094 L1510,1085.5 A2.5,2.5 0 0 1 1507.5,1088 L620.5,1088 A2.5,2.5 0 0 1 618,1085.5 L618,52.5 A2.5,2.5 0 0 1 620.5,50 " style="stroke:#000000;stroke-width:1.5;fill:none;"/><line style="stroke:#000000;stroke-width:1.5;fill:none;" x1="618" x2="670" y1="73.6094" y2="73.6094"/><text fill="#000000" font-family="sans-serif" font-size="14" font-weight="bold" lengthAdjust="spacing" textLength="39" x="622" y="66.5332">detail</text></g><!--MD5=[4dbe30c892a1fcdf9fa56ae716fa2093]
class BL--><g id="elem_BL"><rect codeLine="3" fill="#F1F1F1" height="48" id="BL" rx="2.5" ry="2.5" style="stroke:#181818;stroke-width:0.5;" width="127" x="765.5" y="1246.5"/><ellipse cx="780.5" cy="1262.5" fill="#ADD1B2" rx="11" ry="11" style="stroke:#181818;stroke-width:1.0;"/><path d="M783.2656,1258.375 Q783.4219,1258.1563 783.6094,1258.0469 Q783.7969,1257.9375 784.0156,1257.9375 Q784.3906,1257.9375 784.625,1258.1953 Q784.8594,1258.4531 784.8594,1259.0625 L784.8594,1260.5156 Q784.8594,1261.125 784.625,1261.3906 Q784.3906,1261.6563 784.0156,1261.6563 Q783.6719,1261.6563 783.4688,1261.4531 Q783.2656,1261.2656 783.1563,1260.75 Q783.1094,1260.3906 782.9219,1260.2031 Q782.5938,1259.8281 781.9844,1259.6094 Q781.375,1259.3906 780.75,1259.3906 Q779.9844,1259.3906 779.3516,1259.7188 Q778.7188,1260.0469 778.2266,1260.7969 Q777.7344,1261.5469 777.7344,1262.5781 L777.7344,1263.6719 Q777.7344,1264.9063 778.625,1265.7266 Q779.5156,1266.5469 781.1094,1266.5469 Q782.0469,1266.5469 782.7031,1266.2969 Q783.0938,1266.1406 783.5156,1265.7031 Q783.7813,1265.4375 783.9297,1265.3594 Q784.0781,1265.2813 784.2813,1265.2813 Q784.6094,1265.2813 784.8672,1265.5391 Q785.125,1265.7969 785.125,1266.1406 Q785.125,1266.4844 784.7813,1266.8906 Q784.2813,1267.4688 783.4844,1267.7969 Q782.4063,1268.25 781.1094,1268.25 Q779.5938,1268.25 778.3906,1267.625 Q777.4063,1267.125 776.7188,1266.0547 Q776.0313,1264.9844 776.0313,1263.7031 L776.0313,1262.5469 Q776.0313,1261.2188 776.6484,1260.0703 Q777.2656,1258.9219 778.3594,1258.3047 Q779.4531,1257.6875 780.6875,1257.6875 Q781.4219,1257.6875 782.0703,1257.8516 Q782.7188,1258.0156 783.2656,1258.375 Z " fill="#000000"/><text fill="#000000" font-family="sans-serif" font-size="14" lengthAdjust="spacing" textLength="95" x="794.5" y="1268.2285">BundleListener</text><line style="stroke:#181818;stroke-width:0.5;" x1="766.5" x2="891.5" y1="1278.5" y2="1278.5"/><line style="stroke:#181818;stroke-width:0.5;" x1="766.5" x2="891.5" y1="1286.5" y2="1286.5"/></g><!--MD5=[63bfe9915e95778fa37cde03beb0b815]
class BC--><g id="elem_BC"><rect codeLine="4" fill="#F1F1F1" height="48" id="BC" rx="2.5" ry="2.5" style="stroke:#181818;stroke-width:0.5;" width="124" x="928" y="1246.5"/><ellipse cx="943" cy="1262.5" fill="#ADD1B2" rx="11" ry="11" style="stroke:#181818;stroke-width:1.0;"/><path d="M945.7656,1258.375 Q945.9219,1258.1563 946.1094,1258.0469 Q946.2969,1257.9375 946.5156,1257.9375 Q946.8906,1257.9375 947.125,1258.1953 Q947.3594,1258.4531 947.3594,1259.0625 L947.3594,1260.5156 Q947.3594,1261.125 947.125,1261.3906 Q946.8906,1261.6563 946.5156,1261.6563 Q946.1719,1261.6563 945.9688,1261.4531 Q945.7656,1261.2656 945.6563,1260.75 Q945.6094,1260.3906 945.4219,1260.2031 Q945.0938,1259.8281 944.4844,1259.6094 Q943.875,1259.3906 943.25,1259.3906 Q942.4844,1259.3906 941.8516,1259.7188 Q941.2188,1260.0469 940.7266,1260.7969 Q940.2344,1261.5469 940.2344,1262.5781 L940.2344,1263.6719 Q940.2344,1264.9063 941.125,1265.7266 Q942.0156,1266.5469 943.6094,1266.5469 Q944.5469,1266.5469 945.2031,1266.2969 Q945.5938,1266.1406 946.0156,1265.7031 Q946.2813,1265.4375 946.4297,1265.3594 Q946.5781,1265.2813 946.7813,1265.2813 Q947.1094,1265.2813 947.3672,1265.5391 Q947.625,1265.7969 947.625,1266.1406 Q947.625,1266.4844 947.2813,1266.8906 Q946.7813,1267.4688 945.9844,1267.7969 Q944.9063,1268.25 943.6094,1268.25 Q942.0938,1268.25 940.8906,1267.625 Q939.9063,1267.125 939.2188,1266.0547 Q938.5313,1264.9844 938.5313,1263.7031 L938.5313,1262.5469 Q938.5313,1261.2188 939.1484,1260.0703 Q939.7656,1258.9219 940.8594,1258.3047 Q941.9531,1257.6875 943.1875,1257.6875 Q943.9219,1257.6875 944.5703,1257.8516 Q945.2188,1258.0156 945.7656,1258.375 Z " fill="#000000"/><text fill="#000000" font-family="sans-serif" font-size="14" lengthAdjust="spacing" textLength="92" x="957" y="1268.2285">BundleContext</text><line style="stroke:#181818;stroke-width:0.5;" x1="929" x2="1051" y1="1278.5" y2="1278.5"/><line style="stroke:#181818;stroke-width:0.5;" x1="929" x2="1051" y1="1286.5" y2="1286.5"/></g><!--MD5=[93d1dd1ebbbb2326808ba9e192a9d960]
class BT--><g id="elem_BT"><rect codeLine="6" fill="#F1F1F1" height="276.9219" id="BT" rx="2.5" ry="2.5" style="stroke:#181818;stroke-width:0.5;" width="576" x="89" y="1132"/><ellipse cx="320.75" cy="1148" fill="#ADD1B2" rx="11" ry="11" style="stroke:#181818;stroke-width:1.0;"/><path d="M323.5156,1143.875 Q323.6719,1143.6563 323.8594,1143.5469 Q324.0469,1143.4375 324.2656,1143.4375 Q324.6406,1143.4375 324.875,1143.6953 Q325.1094,1143.9531 325.1094,1144.5625 L325.1094,1146.0156 Q325.1094,1146.625 324.875,1146.8906 Q324.6406,1147.1563 324.2656,1147.1563 Q323.9219,1147.1563 323.7188,1146.9531 Q323.5156,1146.7656 323.4063,1146.25 Q323.3594,1145.8906 323.1719,1145.7031 Q322.8438,1145.3281 322.2344,1145.1094 Q321.625,1144.8906 321,1144.8906 Q320.2344,1144.8906 319.6016,1145.2188 Q318.9688,1145.5469 318.4766,1146.2969 Q317.9844,1147.0469 317.9844,1148.0781 L317.9844,1149.1719 Q317.9844,1150.4063 318.875,1151.2266 Q319.7656,1152.0469 321.3594,1152.0469 Q322.2969,1152.0469 322.9531,1151.7969 Q323.3438,1151.6406 323.7656,1151.2031 Q324.0313,1150.9375 324.1797,1150.8594 Q324.3281,1150.7813 324.5313,1150.7813 Q324.8594,1150.7813 325.1172,1151.0391 Q325.375,1151.2969 325.375,1151.6406 Q325.375,1151.9844 325.0313,1152.3906 Q324.5313,1152.9688 323.7344,1153.2969 Q322.6563,1153.75 321.3594,1153.75 Q319.8438,1153.75 318.6406,1153.125 Q317.6563,1152.625 316.9688,1151.5547 Q316.2813,1150.4844 316.2813,1149.2031 L316.2813,1148.0469 Q316.2813,1146.7188 316.8984,1145.5703 Q317.5156,1144.4219 318.6094,1143.8047 Q319.7031,1143.1875 320.9375,1143.1875 Q321.6719,1143.1875 322.3203,1143.3516 Q322.9688,1143.5156 323.5156,1143.875 Z " fill="#000000"/><text fill="#000000" font-family="sans-serif" font-size="14" lengthAdjust="spacing" textLength="93" x="341.25" y="1153.7285">BundleTracker</text><rect fill="#FFFFFF" height="17.0938" style="stroke:#000000;stroke-width:1.0;stroke-dasharray:2.0,2.0;" width="9" x="659" y="1129"/><text fill="#000000" font-family="sans-serif" font-size="12" font-style="italic" lengthAdjust="spacing" textLength="7" x="660" y="1142.457">T</text><line style="stroke:#181818;stroke-width:0.5;" x1="90" x2="664" y1="1164" y2="1164"/><rect fill="none" height="6" style="stroke:#C82930;stroke-width:1.0;" width="6" x="97" y="1172"/><text fill="#000000" font-family="sans-serif" font-size="14" lengthAdjust="spacing" textLength="352" x="109" y="1182.5332">d : std::unique_ptr&lt;BundleTrackerPrivate&lt;TypeTraits&gt;&gt;</text><line style="stroke:#181818;stroke-width:0.5;" x1="90" x2="664" y1="1189.6094" y2="1189.6094"/><ellipse cx="100" cy="1200.6094" fill="#84BE84" rx="3" ry="3" style="stroke:#038048;stroke-width:1.0;"/><text fill="#000000" font-family="sans-serif" font-size="14" lengthAdjust="spacing" textLength="83" x="109" y="1208.1426">Open() : void</text><ellipse cx="100" cy="1218.2188" fill="#84BE84" rx="3" ry="3" style="stroke:#038048;stroke-width:1.0;"/><text fill="#000000" font-family="sans-serif" font-size="14" lengthAdjust="spacing" textLength="84" x="109" y="1225.752">Close() : void</text><ellipse cx="100" cy="1235.8281" fill="#84BE84" rx="3" ry="3" style="stroke:#038048;stroke-width:1.0;"/><text fill="#000000" font-family="sans-serif" font-size="14" lengthAdjust="spacing" textLength="222" x="109" y="1243.3613">GetBundles() : std::vector&lt;Bundle&gt;</text><ellipse cx="100" cy="1253.4375" fill="#84BE84" rx="3" ry="3" style="stroke:#038048;stroke-width:1.0;"/><text fill="#000000" font-family="sans-serif" font-size="14" lengthAdjust="spacing" textLength="395" x="109" y="1260.9707">GetObject(const Bundle&amp;) : std::optional&lt;TrackedParamType&gt;</text><ellipse cx="100" cy="1271.0469" fill="#84BE84" rx="3" ry="3" style="stroke:#038048;stroke-width:1.0;"/><text fill="#000000" font-family="sans-serif" font-size="14" lengthAdjust="spacing" textLength="302" x="109" y="1278.5801">GetTracked() : std::unordered_map&lt;Bundle, T&gt;</text><ellipse cx="100" cy="1288.6563" fill="#84BE84" rx="3" ry="3" style="stroke:#038048;stroke-width:1.0;"/><text fill="#000000" font-family="sans-serif" font-size="14" lengthAdjust="spacing" textLength="153" x="109" y="1296.1895">GetTrackingCount() : int</text><ellipse cx="100" cy="1306.2656" fill="#84BE84" rx="3" ry="3" style="stroke:#038048;stroke-width:1.0;"/><text fill="#000000" font-family="sans-serif" font-size="14" lengthAdjust="spacing" textLength="98" x="109" y="1313.7988">IsEmpty() : bool</text><ellipse cx="100" cy="1323.875" fill="#84BE84" rx="3" ry="3" style="stroke:#038048;stroke-width:1.0;"/><text fill="#000000" font-family="sans-serif" font-size="14" lengthAdjust="spacing" textLength="192" x="109" y="1331.4082">Remove(const Bundle&amp;) : bool</text><ellipse cx="100" cy="1341.4844" fill="#84BE84" rx="3" ry="3" style="stroke:#038048;stroke-width:1.0;"/><text fill="#000000" font-family="sans-serif" font-size="14" lengthAdjust="spacing" textLength="84" x="109" y="1349.0176">Size() : size_t</text><ellipse cx="100" cy="1359.0938" fill="#84BE84" rx="3" ry="3" style="stroke:#038048;stroke-width:1.0;"/><text fill="#000000" font-family="sans-serif" font-size="14" lengthAdjust="spacing" textLength="550" x="109" y="1366.627">AddingBundle(const Bundle&amp;, const BundleEvent&amp;): std::optional&lt;TrackedParamType&gt;</text><ellipse cx="100" cy="1376.7031" fill="#84BE84" rx="3" ry="3" style="stroke:#038048;stroke-width:1.0;"/><text fill="#000000" font-family="sans-serif" font-size="14" lengthAdjust="spacing" textLength="500" x="109" y="1384.2363">ModifiedBundle(const Bundle&amp;, const BundleEvent&amp;, TrackedParamType): void</text><ellipse cx="100" cy="1394.3125" fill="#84BE84" rx="3" ry="3" style="stroke:#038048;stroke-width:1.0;"/><text fill="#000000" font-family="sans-serif" font-size="14" lengthAdjust="spacing" textLength="507" x="109" y="1401.8457">RemovedBundle(const Bundle&amp;, const BundleEvent&amp;, TrackedParamType): void</text></g><!--MD5=[41a6dfa6ea5b0f7fece1c903fe219360]
class BTC--><g id="elem_BTC"><rect codeLine="21" fill="#F1F1F1" height="100.8281" id="BTC" rx="2.5" ry="2.5" style="stroke:#181818;stroke-width:0.5;" width="580" x="22" y="909.5"/><ellipse cx="219.75" cy="925.5" fill="#B4A7E5" rx="11" ry="11" style="stroke:#181818;stroke-width:1.0;"/><path d="M220.7031,922.1406 L220.7031,928.7969 L222.4219,928.7969 Q223.0313,928.7969 223.2969,929.0313 Q223.5625,929.2656 223.5625,929.6563 Q223.5625,930.0313 223.2969,930.2656 Q223.0313,930.5 222.4219,930.5 L217.2813,930.5 Q216.6719,930.5 216.4063,930.2656 Q216.1406,930.0313 216.1406,929.6406 Q216.1406,929.2656 216.4063,929.0313 Q216.6719,928.7969 217.2813,928.7969 L219,928.7969 L219,922.1406 L217.2813,922.1406 Q216.6719,922.1406 216.4063,921.9063 Q216.1406,921.6719 216.1406,921.2813 Q216.1406,920.9063 216.4063,920.6719 Q216.6719,920.4375 217.2813,920.4375 L222.4219,920.4375 Q223.0313,920.4375 223.2969,920.6719 Q223.5625,920.9063 223.5625,921.2813 Q223.5625,921.6719 223.2969,921.9063 Q223.0313,922.1406 222.4219,922.1406 L220.7031,922.1406 Z " fill="#000000"/><text fill="#000000" font-family="sans-serif" font-size="14" font-style="italic" lengthAdjust="spacing" textLength="165" x="240.25" y="931.2285">BundleTrackerCustomizer</text><rect fill="#FFFFFF" height="17.0938" style="stroke:#000000;stroke-width:1.0;stroke-dasharray:2.0,2.0;" width="9" x="596" y="906.5"/><text fill="#000000" font-family="sans-serif" font-size="12" font-style="italic" lengthAdjust="spacing" textLength="7" x="597" y="919.957">T</text><line style="stroke:#181818;stroke-width:0.5;" x1="23" x2="601" y1="941.5" y2="941.5"/><line style="stroke:#181818;stroke-width:0.5;" x1="23" x2="601" y1="949.5" y2="949.5"/><ellipse cx="33" cy="960.5" fill="#84BE84" rx="3" ry="3" style="stroke:#038048;stroke-width:1.0;"/><text fill="#000000" font-family="sans-serif" font-size="14" lengthAdjust="spacing" textLength="554" x="42" y="968.0332">AddingBundle(const Bundle&amp;, const BundleEvent&amp;) : std::optional&lt;TrackedParamType&gt;</text><ellipse cx="33" cy="978.1094" fill="#84BE84" rx="3" ry="3" style="stroke:#038048;stroke-width:1.0;"/><text fill="#000000" font-family="sans-serif" font-size="14" lengthAdjust="spacing" textLength="504" x="42" y="985.6426">ModifiedBundle(const Bundle&amp;, const BundleEvent&amp;, TrackedParamType) : void</text><ellipse cx="33" cy="995.7188" fill="#84BE84" rx="3" ry="3" style="stroke:#038048;stroke-width:1.0;"/><text fill="#000000" font-family="sans-serif" font-size="14" lengthAdjust="spacing" textLength="511" x="42" y="1003.252">RemovedBundle(const Bundle&amp;, const BundleEvent&amp;, TrackedParamType) : void</text></g><!--MD5=[bdee2981d45034eef10477af82105976]
class BTP--><g id="elem_BTP"><rect codeLine="28" fill="#F1F1F1" height="224.0938" id="BTP" rx="2.5" ry="2.5" style="stroke:#181818;stroke-width:0.5;" width="546" x="637" y="848"/><ellipse cx="824.75" cy="864" fill="#ADD1B2" rx="11" ry="11" style="stroke:#181818;stroke-width:1.0;"/><path d="M827.5156,859.875 Q827.6719,859.6563 827.8594,859.5469 Q828.0469,859.4375 828.2656,859.4375 Q828.6406,859.4375 828.875,859.6953 Q829.1094,859.9531 829.1094,860.5625 L829.1094,862.0156 Q829.1094,862.625 828.875,862.8906 Q828.6406,863.1563 828.2656,863.1563 Q827.9219,863.1563 827.7188,862.9531 Q827.5156,862.7656 827.4063,862.25 Q827.3594,861.8906 827.1719,861.7031 Q826.8438,861.3281 826.2344,861.1094 Q825.625,860.8906 825,860.8906 Q824.2344,860.8906 823.6016,861.2188 Q822.9688,861.5469 822.4766,862.2969 Q821.9844,863.0469 821.9844,864.0781 L821.9844,865.1719 Q821.9844,866.4063 822.875,867.2266 Q823.7656,868.0469 825.3594,868.0469 Q826.2969,868.0469 826.9531,867.7969 Q827.3438,867.6406 827.7656,867.2031 Q828.0313,866.9375 828.1797,866.8594 Q828.3281,866.7813 828.5313,866.7813 Q828.8594,866.7813 829.1172,867.0391 Q829.375,867.2969 829.375,867.6406 Q829.375,867.9844 829.0313,868.3906 Q828.5313,868.9688 827.7344,869.2969 Q826.6563,869.75 825.3594,869.75 Q823.8438,869.75 822.6406,869.125 Q821.6563,868.625 820.9688,867.5547 Q820.2813,866.4844 820.2813,865.2031 L820.2813,864.0469 Q820.2813,862.7188 820.8984,861.5703 Q821.5156,860.4219 822.6094,859.8047 Q823.7031,859.1875 824.9375,859.1875 Q825.6719,859.1875 826.3203,859.3516 Q826.9688,859.5156 827.5156,859.875 Z " fill="#000000"/><text fill="#000000" font-family="sans-serif" font-size="14" lengthAdjust="spacing" textLength="137" x="845.25" y="869.7285">BundleTrackerPrivate</text><rect fill="#FFFFFF" height="17.0938" style="stroke:#000000;stroke-width:1.0;stroke-dasharray:2.0,2.0;" width="23" x="1163" y="845"/><text fill="#000000" font-family="sans-serif" font-size="12" font-style="italic" lengthAdjust="spacing" textLength="21" x="1164" y="858.457">TTT</text><line style="stroke:#181818;stroke-width:0.5;" x1="638" x2="1182" y1="880" y2="880"/><ellipse cx="648" cy="891" fill="none" rx="3" ry="3" style="stroke:#038048;stroke-width:1.0;"/><text fill="#000000" font-family="sans-serif" font-size="14" lengthAdjust="spacing" textLength="149" x="657" y="898.5332">context : BundleContext</text><ellipse cx="648" cy="908.6094" fill="none" rx="3" ry="3" style="stroke:#038048;stroke-width:1.0;"/><text fill="#000000" font-family="sans-serif" font-size="14" lengthAdjust="spacing" textLength="454" x="657" y="916.1426">customizer : std::shared_ptr&lt;BundleTrackerCustomizer&lt;TrackedType&gt;&gt;</text><ellipse cx="648" cy="926.2188" fill="none" rx="3" ry="3" style="stroke:#038048;stroke-width:1.0;"/><text fill="#000000" font-family="sans-serif" font-size="14" lengthAdjust="spacing" textLength="189" x="657" y="933.752">listenerToken : ListenerToken</text><ellipse cx="648" cy="943.8281" fill="none" rx="3" ry="3" style="stroke:#038048;stroke-width:1.0;"/><text fill="#000000" font-family="sans-serif" font-size="14" lengthAdjust="spacing" textLength="412" x="657" y="951.3613">trackedBundle : Atomic&lt;std::shared_ptr&lt;TrackedBundle&lt;TTT&gt;&gt;&gt;</text><rect fill="none" height="6" style="stroke:#C82930;stroke-width:1.0;" width="6" x="645" y="958.4375"/><text fill="#000000" font-family="sans-serif" font-size="14" lengthAdjust="spacing" textLength="168" x="657" y="968.9707">q_ptr : BundleTracker&lt;T&gt;*</text><line style="stroke:#181818;stroke-width:0.5;" x1="638" x2="1182" y1="976.0469" y2="976.0469"/><ellipse cx="648" cy="987.0469" fill="#84BE84" rx="3" ry="3" style="stroke:#038048;stroke-width:1.0;"/><text fill="#000000" font-family="sans-serif" font-size="14" lengthAdjust="spacing" textLength="352" x="657" y="994.5801">Tracked() : std::shared_pointer&lt;TrackedBundle&lt;TTT&gt;&gt;</text><ellipse cx="648" cy="1004.6563" fill="#84BE84" rx="3" ry="3" style="stroke:#038048;stroke-width:1.0;"/><text fill="#000000" font-family="sans-serif" font-size="14" lengthAdjust="spacing" textLength="373" x="657" y="1012.1895">GetInitialBundles(uint32_t stateMask) : std::vector&lt;Bundle&gt;</text><ellipse cx="648" cy="1022.2656" fill="#84BE84" rx="3" ry="3" style="stroke:#038048;stroke-width:1.0;"/><text fill="#000000" font-family="sans-serif" font-size="14" lengthAdjust="spacing" textLength="520" x="657" y="1029.7988">GetBundles_unlocked(std::vector&lt;Bundle&gt;&amp;, TrackedBundle&lt;TTT&gt;* t) const : void</text><rect fill="#F24D5C" height="6" style="stroke:#C82930;stroke-width:1.0;" width="6" x="645" y="1036.875"/><text fill="#000000" font-family="sans-serif" font-size="14" lengthAdjust="spacing" textLength="188" x="657" y="1047.4082">q_func() : BundleTracker&lt;T&gt;*</text><rect fill="#F24D5C" height="6" style="stroke:#C82930;stroke-width:1.0;" width="6" x="645" y="1054.4844"/><text fill="#000000" font-family="sans-serif" font-size="14" lengthAdjust="spacing" textLength="264" x="657" y="1065.0176">q_func() const : const BundleTracker&lt;T&gt;*</text></g><!--MD5=[69213cb5fd0246b17e695251017ae695]
class TBL--><g id="elem_TBL"><rect codeLine="40" fill="#F1F1F1" height="65.6094" id="TBL" rx="2.5" ry="2.5" style="stroke:#181818;stroke-width:0.5;" width="303" x="1190.5" y="279.5"/><ellipse cx="1263.75" cy="295.5" fill="#B4A7E5" rx="11" ry="11" style="stroke:#181818;stroke-width:1.0;"/><path d="M1264.7031,292.1406 L1264.7031,298.7969 L1266.4219,298.7969 Q1267.0313,298.7969 1267.2969,299.0313 Q1267.5625,299.2656 1267.5625,299.6563 Q1267.5625,300.0313 1267.2969,300.2656 Q1267.0313,300.5 1266.4219,300.5 L1261.2813,300.5 Q1260.6719,300.5 1260.4063,300.2656 Q1260.1406,300.0313 1260.1406,299.6406 Q1260.1406,299.2656 1260.4063,299.0313 Q1260.6719,298.7969 1261.2813,298.7969 L1263,298.7969 L1263,292.1406 L1261.2813,292.1406 Q1260.6719,292.1406 1260.4063,291.9063 Q1260.1406,291.6719 1260.1406,291.2813 Q1260.1406,290.9063 1260.4063,290.6719 Q1260.6719,290.4375 1261.2813,290.4375 L1266.4219,290.4375 Q1267.0313,290.4375 1267.2969,290.6719 Q1267.5625,290.9063 1267.5625,291.2813 Q1267.5625,291.6719 1267.2969,291.9063 Q1267.0313,292.1406 1266.4219,292.1406 L1264.7031,292.1406 Z " fill="#000000"/><text fill="#000000" font-family="sans-serif" font-size="14" font-style="italic" lengthAdjust="spacing" textLength="148" x="1284.25" y="301.2285">TrackedBundleListener</text><line style="stroke:#181818;stroke-width:0.5;" x1="1191.5" x2="1492.5" y1="311.5" y2="311.5"/><line style="stroke:#181818;stroke-width:0.5;" x1="1191.5" x2="1492.5" y1="319.5" y2="319.5"/><ellipse cx="1201.5" cy="330.5" fill="#84BE84" rx="3" ry="3" style="stroke:#038048;stroke-width:1.0;"/><text fill="#000000" font-family="sans-serif" font-size="14" lengthAdjust="spacing" textLength="277" x="1210.5" y="338.0332">BundleChanged(const BundleEvent&amp;) : void</text></g><!--MD5=[00fdfad244390b308561b01f36e0fb53]
class TB--><g id="elem_TB"><rect codeLine="43" fill="#F1F1F1" height="188.875" id="TB" rx="2.5" ry="2.5" style="stroke:#181818;stroke-width:0.5;" width="606" x="844" y="599"/><ellipse cx="1082.25" cy="615" fill="#ADD1B2" rx="11" ry="11" style="stroke:#181818;stroke-width:1.0;"/><path d="M1085.0156,610.875 Q1085.1719,610.6563 1085.3594,610.5469 Q1085.5469,610.4375 1085.7656,610.4375 Q1086.1406,610.4375 1086.375,610.6953 Q1086.6094,610.9531 1086.6094,611.5625 L1086.6094,613.0156 Q1086.6094,613.625 1086.375,613.8906 Q1086.1406,614.1563 1085.7656,614.1563 Q1085.4219,614.1563 1085.2188,613.9531 Q1085.0156,613.7656 1084.9063,613.25 Q1084.8594,612.8906 1084.6719,612.7031 Q1084.3438,612.3281 1083.7344,612.1094 Q1083.125,611.8906 1082.5,611.8906 Q1081.7344,611.8906 1081.1016,612.2188 Q1080.4688,612.5469 1079.9766,613.2969 Q1079.4844,614.0469 1079.4844,615.0781 L1079.4844,616.1719 Q1079.4844,617.4063 1080.375,618.2266 Q1081.2656,619.0469 1082.8594,619.0469 Q1083.7969,619.0469 1084.4531,618.7969 Q1084.8438,618.6406 1085.2656,618.2031 Q1085.5313,617.9375 1085.6797,617.8594 Q1085.8281,617.7813 1086.0313,617.7813 Q1086.3594,617.7813 1086.6172,618.0391 Q1086.875,618.2969 1086.875,618.6406 Q1086.875,618.9844 1086.5313,619.3906 Q1086.0313,619.9688 1085.2344,620.2969 Q1084.1563,620.75 1082.8594,620.75 Q1081.3438,620.75 1080.1406,620.125 Q1079.1563,619.625 1078.4688,618.5547 Q1077.7813,617.4844 1077.7813,616.2031 L1077.7813,615.0469 Q1077.7813,613.7188 1078.3984,612.5703 Q1079.0156,611.4219 1080.1094,610.8047 Q1081.2031,610.1875 1082.4375,610.1875 Q1083.1719,610.1875 1083.8203,610.3516 Q1084.4688,610.5156 1085.0156,610.875 Z " fill="#000000"/><text fill="#000000" font-family="sans-serif" font-size="14" lengthAdjust="spacing" textLength="96" x="1102.75" y="620.7285">TrackedBundle</text><rect fill="#FFFFFF" height="17.0938" style="stroke:#000000;stroke-width:1.0;stroke-dasharray:2.0,2.0;" width="23" x="1430" y="596"/><text fill="#000000" font-family="sans-serif" font-size="12" font-style="italic" lengthAdjust="spacing" textLength="21" x="1431" y="609.457">TTT</text><line style="stroke:#181818;stroke-width:0.5;" x1="845" x2="1449" y1="631" y2="631"/><rect fill="none" height="6" style="stroke:#C82930;stroke-width:1.0;" width="6" x="852" y="639"/><text fill="#000000" font-family="sans-serif" font-size="14" lengthAdjust="spacing" textLength="128" x="864" y="649.5332">latch : CounterLatch</text><rect fill="none" height="6" style="stroke:#C82930;stroke-width:1.0;" width="6" x="852" y="656.6094"/><text fill="#000000" font-family="sans-serif" font-size="14" lengthAdjust="spacing" textLength="227" x="864" y="667.1426">bundleTracker : BundleTracker&lt;T&gt;*</text><rect fill="none" height="6" style="stroke:#C82930;stroke-width:1.0;" width="6" x="852" y="674.2188"/><text fill="#000000" font-family="sans-serif" font-size="14" lengthAdjust="spacing" textLength="272" x="864" y="684.752">customizer : BundleTrackerCustomizer&lt;T&gt;*</text><line style="stroke:#181818;stroke-width:0.5;" x1="845" x2="1449" y1="691.8281" y2="691.8281"/><rect fill="#F24D5C" height="6" style="stroke:#C82930;stroke-width:1.0;" width="6" x="852" y="699.8281"/><text fill="#000000" font-family="sans-serif" font-size="14" lengthAdjust="spacing" textLength="277" x="864" y="710.3613">BundleChanged(const BundleEvent&amp;) : void</text><rect fill="#F24D5C" height="6" style="stroke:#C82930;stroke-width:1.0;" width="6" x="852" y="717.4375"/><text fill="#000000" font-family="sans-serif" font-size="14" lengthAdjust="spacing" textLength="101" x="864" y="727.9707">Modified() : void</text><rect fill="#F24D5C" height="6" style="stroke:#C82930;stroke-width:1.0;" width="6" x="852" y="735.0469"/><text fill="#000000" font-family="sans-serif" font-size="14" lengthAdjust="spacing" textLength="580" x="864" y="745.5801">CustomizerAdding(const Bundle&amp;, const BundleEvent&amp;) : std::optional&lt;TrackedParamType&gt;</text><rect fill="#F24D5C" height="6" style="stroke:#C82930;stroke-width:1.0;" width="6" x="852" y="752.6563"/><text fill="#000000" font-family="sans-serif" font-size="14" lengthAdjust="spacing" textLength="530" x="864" y="763.1895">CustomzierModified(const Bundle&amp;, const BundleEvent&amp;, TrackedParamType) : void</text><rect fill="#F24D5C" height="6" style="stroke:#C82930;stroke-width:1.0;" width="6" x="852" y="770.2656"/><text fill="#000000" font-family="sans-serif" font-size="14" lengthAdjust="spacing" textLength="537" x="864" y="780.7988">CustomzierRemoved(const Bundle&amp;, const BundleEvent&amp;, TrackedParamType) : void</text></g><!--MD5=[b0a1b9137b50b50b320b426f68562434]
class TS--><g id="elem_TS"><rect codeLine="55" fill="#F1F1F1" height="48" id="TS" rx="2.5" ry="2.5" style="stroke:#181818;stroke-width:0.5;" width="131" x="677.5" y="669.5"/><ellipse cx="692.5" cy="685.5" fill="#ADD1B2" rx="11" ry="11" style="stroke:#181818;stroke-width:1.0;"/><path d="M695.2656,681.375 Q695.4219,681.1563 695.6094,681.0469 Q695.7969,680.9375 696.0156,680.9375 Q696.3906,680.9375 696.625,681.1953 Q696.8594,681.4531 696.8594,682.0625 L696.8594,683.5156 Q696.8594,684.125 696.625,684.3906 Q696.3906,684.6563 696.0156,684.6563 Q695.6719,684.6563 695.4688,684.4531 Q695.2656,684.2656 695.1563,683.75 Q695.1094,683.3906 694.9219,683.2031 Q694.5938,682.8281 693.9844,682.6094 Q693.375,682.3906 692.75,682.3906 Q691.9844,682.3906 691.3516,682.7188 Q690.7188,683.0469 690.2266,683.7969 Q689.7344,684.5469 689.7344,685.5781 L689.7344,686.6719 Q689.7344,687.9063 690.625,688.7266 Q691.5156,689.5469 693.1094,689.5469 Q694.0469,689.5469 694.7031,689.2969 Q695.0938,689.1406 695.5156,688.7031 Q695.7813,688.4375 695.9297,688.3594 Q696.0781,688.2813 696.2813,688.2813 Q696.6094,688.2813 696.8672,688.5391 Q697.125,688.7969 697.125,689.1406 Q697.125,689.4844 696.7813,689.8906 Q696.2813,690.4688 695.4844,690.7969 Q694.4063,691.25 693.1094,691.25 Q691.5938,691.25 690.3906,690.625 Q689.4063,690.125 688.7188,689.0547 Q688.0313,687.9844 688.0313,686.7031 L688.0313,685.5469 Q688.0313,684.2188 688.6484,683.0703 Q689.2656,681.9219 690.3594,681.3047 Q691.4531,680.6875 692.6875,680.6875 Q693.4219,680.6875 694.0703,680.8516 Q694.7188,681.0156 695.2656,681.375 Z " fill="#000000"/><text fill="#000000" font-family="sans-serif" font-size="14" lengthAdjust="spacing" textLength="99" x="706.5" y="691.2285">TrackedService</text><line style="stroke:#181818;stroke-width:0.5;" x1="678.5" x2="807.5" y1="701.5" y2="701.5"/><line style="stroke:#181818;stroke-width:0.5;" x1="678.5" x2="807.5" y1="709.5" y2="709.5"/></g><!--MD5=[1d441b583f937de94e1223e405e9091a]
class BAT--><g id="elem_BAT"><rect codeLine="56" fill="#F1F1F1" height="453.0156" id="BAT" rx="2.5" ry="2.5" style="stroke:#181818;stroke-width:0.5;" width="521" x="634.5" y="86"/><ellipse cx="789.75" cy="102" fill="#ADD1B2" rx="11" ry="11" style="stroke:#181818;stroke-width:1.0;"/><path d="M792.5156,97.875 Q792.6719,97.6563 792.8594,97.5469 Q793.0469,97.4375 793.2656,97.4375 Q793.6406,97.4375 793.875,97.6953 Q794.1094,97.9531 794.1094,98.5625 L794.1094,100.0156 Q794.1094,100.625 793.875,100.8906 Q793.6406,101.1563 793.2656,101.1563 Q792.9219,101.1563 792.7188,100.9531 Q792.5156,100.7656 792.4063,100.25 Q792.3594,99.8906 792.1719,99.7031 Q791.8438,99.3281 791.2344,99.1094 Q790.625,98.8906 790,98.8906 Q789.2344,98.8906 788.6016,99.2188 Q787.9688,99.5469 787.4766,100.2969 Q786.9844,101.0469 786.9844,102.0781 L786.9844,103.1719 Q786.9844,104.4063 787.875,105.2266 Q788.7656,106.0469 790.3594,106.0469 Q791.2969,106.0469 791.9531,105.7969 Q792.3438,105.6406 792.7656,105.2031 Q793.0313,104.9375 793.1797,104.8594 Q793.3281,104.7813 793.5313,104.7813 Q793.8594,104.7813 794.1172,105.0391 Q794.375,105.2969 794.375,105.6406 Q794.375,105.9844 794.0313,106.3906 Q793.5313,106.9688 792.7344,107.2969 Q791.6563,107.75 790.3594,107.75 Q788.8438,107.75 787.6406,107.125 Q786.6563,106.625 785.9688,105.5547 Q785.2813,104.4844 785.2813,103.2031 L785.2813,102.0469 Q785.2813,100.7188 785.8984,99.5703 Q786.5156,98.4219 787.6094,97.8047 Q788.7031,97.1875 789.9375,97.1875 Q790.6719,97.1875 791.3203,97.3516 Q791.9688,97.5156 792.5156,97.875 Z " fill="#000000"/><text fill="#000000" font-family="sans-serif" font-size="14" lengthAdjust="spacing" textLength="148" x="810.25" y="107.7285">BundleAbstractTracked</text><rect fill="#FFFFFF" height="17.0938" style="stroke:#000000;stroke-width:1.0;stroke-dasharray:2.0,2.0;" width="52" x="1106.5" y="83"/><text fill="#000000" font-family="sans-serif" font-size="12" font-style="italic" lengthAdjust="spacing" textLength="50" x="1107.5" y="96.457">S, TTT, R</text><line style="stroke:#181818;stroke-width:0.5;" x1="635.5" x2="1154.5" y1="118" y2="118"/><ellipse cx="645.5" cy="129" fill="none" rx="3" ry="3" style="stroke:#038048;stroke-width:1.0;"/><text fill="#000000" font-family="sans-serif" font-size="14" lengthAdjust="spacing" textLength="113" x="654.5" y="136.5332">initial : std::list&lt;S&gt;</text><ellipse cx="645.5" cy="146.6094" fill="none" rx="3" ry="3" style="stroke:#038048;stroke-width:1.0;"/><text fill="#000000" font-family="sans-serif" font-size="14" lengthAdjust="spacing" textLength="124" x="654.5" y="154.1426">adding : std::list&lt;S&gt;</text><ellipse cx="645.5" cy="164.2188" fill="none" rx="3" ry="3" style="stroke:#038048;stroke-width:1.0;"/><text fill="#000000" font-family="sans-serif" font-size="14" lengthAdjust="spacing" textLength="164" x="654.5" y="171.752">closed : std::atmoic&lt;bool&gt;</text><rect fill="none" height="6" style="stroke:#C82930;stroke-width:1.0;" width="6" x="642.5" y="178.8281"/><text fill="#000000" font-family="sans-serif" font-size="14" lengthAdjust="spacing" textLength="345" x="654.5" y="189.3613">tracked : std::unordered_map&lt;S, TrackedParamType&gt;</text><rect fill="none" height="6" style="stroke:#C82930;stroke-width:1.0;" width="6" x="642.5" y="196.4375"/><text fill="#000000" font-family="sans-serif" font-size="14" lengthAdjust="spacing" textLength="199" x="654.5" y="206.9707">trackingCount : std::atomic&lt;int&gt;</text><rect fill="none" height="6" style="stroke:#C82930;stroke-width:1.0;" width="6" x="642.5" y="214.0469"/><text fill="#000000" font-family="sans-serif" font-size="14" lengthAdjust="spacing" textLength="119" x="654.5" y="224.5801">bc : BundleContext</text><line style="stroke:#181818;stroke-width:0.5;" x1="635.5" x2="1154.5" y1="231.6563" y2="231.6563"/><ellipse cx="645.5" cy="242.6563" fill="#84BE84" rx="3" ry="3" style="stroke:#038048;stroke-width:1.0;"/><text fill="#000000" font-family="sans-serif" font-size="14" lengthAdjust="spacing" textLength="239" x="654.5" y="250.1895">SetInitial(const std::vector&lt;S&gt;&amp;) : void</text><ellipse cx="645.5" cy="260.2656" fill="#84BE84" rx="3" ry="3" style="stroke:#038048;stroke-width:1.0;"/><text fill="#000000" font-family="sans-serif" font-size="14" lengthAdjust="spacing" textLength="116" x="654.5" y="267.7988">TrackInitial() : void</text><ellipse cx="645.5" cy="277.875" fill="#84BE84" rx="3" ry="3" style="stroke:#038048;stroke-width:1.0;"/><text fill="#000000" font-family="sans-serif" font-size="14" lengthAdjust="spacing" textLength="84" x="654.5" y="285.4082">Close() : void</text><ellipse cx="645.5" cy="295.4844" fill="#84BE84" rx="3" ry="3" style="stroke:#038048;stroke-width:1.0;"/><text fill="#000000" font-family="sans-serif" font-size="14" lengthAdjust="spacing" textLength="111" x="654.5" y="303.0176">Track(S, R) : void</text><ellipse cx="645.5" cy="313.0938" fill="#84BE84" rx="3" ry="3" style="stroke:#038048;stroke-width:1.0;"/><text fill="#000000" font-family="sans-serif" font-size="14" lengthAdjust="spacing" textLength="123" x="654.5" y="320.627">Untrack(S, R) : void</text><ellipse cx="645.5" cy="330.7031" fill="#84BE84" rx="3" ry="3" style="stroke:#038048;stroke-width:1.0;"/><text fill="#000000" font-family="sans-serif" font-size="14" lengthAdjust="spacing" textLength="176" x="654.5" y="338.2363">Size_unlocked() : std::size_t</text><ellipse cx="645.5" cy="348.3125" fill="#84BE84" rx="3" ry="3" style="stroke:#038048;stroke-width:1.0;"/><text fill="#000000" font-family="sans-serif" font-size="14" lengthAdjust="spacing" textLength="163" x="654.5" y="355.8457">IsEmpty_unlocked() : bool</text><ellipse cx="645.5" cy="365.9219" fill="#84BE84" rx="3" ry="3" style="stroke:#038048;stroke-width:1.0;"/><text fill="#000000" font-family="sans-serif" font-size="14" lengthAdjust="spacing" textLength="451" x="654.5" y="373.4551">GetCustomizedObject_unlocked(S) : std::optional&lt;TrackedParamType&gt;</text><ellipse cx="645.5" cy="383.5313" fill="#84BE84" rx="3" ry="3" style="stroke:#038048;stroke-width:1.0;"/><text fill="#000000" font-family="sans-serif" font-size="14" lengthAdjust="spacing" textLength="288" x="654.5" y="391.0645">GetTracked_unlocked(std::vector&lt;S&gt;&amp;) : void</text><ellipse cx="645.5" cy="401.1406" fill="#84BE84" rx="3" ry="3" style="stroke:#038048;stroke-width:1.0;"/><text fill="#000000" font-family="sans-serif" font-size="14" lengthAdjust="spacing" textLength="101" x="654.5" y="408.6738">Modified() : void</text><ellipse cx="645.5" cy="418.75" fill="#84BE84" rx="3" ry="3" style="stroke:#038048;stroke-width:1.0;"/><text fill="#000000" font-family="sans-serif" font-size="14" lengthAdjust="spacing" textLength="153" x="654.5" y="426.2832">GetTrackingCount() : int</text><ellipse cx="645.5" cy="436.3594" fill="#84BE84" rx="3" ry="3" style="stroke:#038048;stroke-width:1.0;"/><text fill="#000000" font-family="sans-serif" font-size="14" lengthAdjust="spacing" textLength="281" x="654.5" y="443.8926">CopyEntries_unlocked(TrackingMap&amp;) : void</text><ellipse cx="645.5" cy="453.9688" fill="#84BE84" rx="3" ry="3" style="stroke:#038048;stroke-width:1.0;"/><text fill="#000000" font-family="sans-serif" font-size="14" lengthAdjust="spacing" textLength="390" x="654.5" y="461.502">CustomizerAdding(S, R&amp;) : std::optional&lt;TrackedParamType&gt;</text><ellipse cx="645.5" cy="471.5781" fill="#84BE84" rx="3" ry="3" style="stroke:#038048;stroke-width:1.0;"/><text fill="#000000" font-family="sans-serif" font-size="14" lengthAdjust="spacing" textLength="349" x="654.5" y="479.1113">CustomzierModified(S, R&amp;, TrackedParamType&amp;) : void</text><ellipse cx="645.5" cy="489.1875" fill="#84BE84" rx="3" ry="3" style="stroke:#038048;stroke-width:1.0;"/><text fill="#000000" font-family="sans-serif" font-size="14" lengthAdjust="spacing" textLength="356" x="654.5" y="496.7207">CustomzierRemoved(S, R&amp;, TrackedParamType&amp;) : void</text><ellipse cx="645.5" cy="506.7969" fill="#84BE84" rx="3" ry="3" style="stroke:#038048;stroke-width:1.0;"/><text fill="#000000" font-family="sans-serif" font-size="14" lengthAdjust="spacing" textLength="155" x="654.5" y="514.3301">TrackAdding(S, R) : void</text><rect fill="#F24D5C" height="6" style="stroke:#C82930;stroke-width:1.0;" width="6" x="642.5" y="521.4063"/><text fill="#000000" font-family="sans-serif" font-size="14" lengthAdjust="spacing" textLength="495" x="654.5" y="531.9395">CustomizerAddingFinal(S, const std::shared_ptr&lt;TrackedParamType&gt;&amp;) : bool</text></g><!--MD5=[9e2ef345445e7b6b0523d8fe713ae647]
reverse link BTC to BT--><g id="link_BTC_BT"><path codeLine="82" d="M326.6,1030.29 C332.93,1060.35 340.58,1096.67 347.99,1131.82 " fill="none" id="BTC-backto-BT" style="stroke:#181818;stroke-width:1.0;"/><polygon fill="none" points="319.72,1031.58,322.44,1010.57,333.42,1028.69,319.72,1031.58" style="stroke:#181818;stroke-width:1.0;"/></g><!--MD5=[bcde373f95adde5abceec89c4cd4ed37]
reverse link BT to BTP--><g id="link_BT_BTP"><path codeLine="83" d="M639.77,1125.21 C670.66,1107.38 701.61,1089.38 730.97,1072.16 " fill="none" id="BT-backto-BTP" style="stroke:#181818;stroke-width:1.0;"/><polygon fill="#181818" points="628.4,1131.77,635.5957,1132.2406,638.7977,1125.7794,631.602,1125.3088,628.4,1131.77" style="stroke:#181818;stroke-width:1.0;"/></g><!--MD5=[23e60285e28e9a4b7d17a25c1da2708f]
reverse link BTP to BT--><g id="link_BTP_BT"><path codeLine="84" d="M694.11,1078.77 C663.85,1096.1 632.7,1114.08 602.28,1131.77 " fill="none" id="BTP-backto-BT" style="stroke:#181818;stroke-width:1.0;"/><polygon fill="none" points="705.65,1072.16,698.4554,1071.6717,695.2376,1078.125,702.4321,1078.6133,705.65,1072.16" style="stroke:#181818;stroke-width:1.0;"/></g><!--MD5=[dda693158a2269094c4798b583b8ccab]
reverse link BAT to TB--><g id="link_BAT_TB"><path codeLine="85" d="M1056.28,556.07 C1066.13,570.88 1075.67,585.22 1084.62,598.69 " fill="none" id="BAT-backto-TB" style="stroke:#181818;stroke-width:1.0;"/><polygon fill="none" points="1050.29,559.7,1045.05,539.17,1061.95,551.94,1050.29,559.7" style="stroke:#181818;stroke-width:1.0;"/></g><!--MD5=[5aaa4641774891a3c73a93cac076f6ee]
reverse link TBL to TB--><g id="link_TBL_TB"><path codeLine="86" d="M1316.19,363.67 C1285.46,423.39 1233.51,524.37 1195.26,598.7 " fill="none" id="TBL-backto-TB" style="stroke:#181818;stroke-width:1.0;"/><polygon fill="none" points="1310,360.39,1325.37,345.81,1322.45,366.8,1310,360.39" style="stroke:#181818;stroke-width:1.0;"/></g><!--MD5=[d8d4732a3a297cc0b314c034b23add48]
reverse link TB to BTP--><g id="link_TB_BTP"><path codeLine="87" d="M1054.1,798.18 C1039.49,814.48 1024.35,831.38 1009.6,847.84 " fill="none" id="TB-backto-BTP" style="stroke:#181818;stroke-width:1.0;"/><polygon fill="#181818" points="1063.11,788.13,1056.1264,789.927,1055.0992,797.0646,1062.0828,795.2676,1063.11,788.13" style="stroke:#181818;stroke-width:1.0;"/></g><!--MD5=[1920c535d9b0f34b2c19c90fdc3ed05c]
reverse link BTP to BC--><g id="link_BTP_BC"><path codeLine="88" d="M942.19,1085.12 C957.81,1145.36 975.08,1211.97 983.97,1246.26 " fill="none" id="BTP-backto-BC" style="stroke:#181818;stroke-width:1.0;"/><polygon fill="none" points="938.88,1072.38,936.5108,1079.1908,941.8865,1083.9973,944.2557,1077.1865,938.88,1072.38" style="stroke:#181818;stroke-width:1.0;"/></g><!--MD5=[9deada92207f89ed8bd464d829d14228]
reverse link BTP to BL--><g id="link_BTP_BL"><path codeLine="89" d="M877.41,1085.12 C861.6,1145.36 844.1,1211.97 835.1,1246.26 " fill="none" id="BTP-backto-BL" style="stroke:#181818;stroke-width:1.0;"/><polygon fill="none" points="880.76,1072.38,875.369,1077.1693,877.7165,1083.9876,883.1074,1079.1983,880.76,1072.38" style="stroke:#181818;stroke-width:1.0;"/></g><!--MD5=[b3ed72094f7cc776b24dea93e49844f0]
reverse link BTP to BTC--><g id="link_BTP_BTC"><path codeLine="90" d="M623.57,960 C616.46,960 609.35,960 602.24,960 " fill="none" id="BTP-backto-BTC" style="stroke:#181818;stroke-width:1.0;"/><polygon fill="none" points="636.8,960,630.8,956,624.8,960,630.8,964,636.8,960" style="stroke:#181818;stroke-width:1.0;"/></g><!--MD5=[ef10fcdddae26de9a44bbeec075cfad6]
reverse link BAT to TS--><g id="link_BAT_TS"><path codeLine="91" d="M796.95,557.98 C778.59,603.77 762.1,644.88 752.32,669.26 " fill="none" id="BAT-backto-TS" style="stroke:#181818;stroke-width:1.0;"/><polygon fill="none" points="790.55,555.12,804.5,539.17,803.55,560.33,790.55,555.12" style="stroke:#181818;stroke-width:1.0;"/></g><!--MD5=[bc59a122e952acfd77700a7c3a636d9b]
@startuml class_diagram
package cppmicroservices {
    
    class "BundleListener" as BL
    class "BundleContext" as BC

    class "BundleTracker" as BT<T> {
        - d : std::unique_ptr<BundleTrackerPrivate<TypeTraits>>
        + Open() : void
        + Close() : void
        + GetBundles() : std::vector<Bundle>
        + GetObject(const Bundle&) : std::optional<TrackedParamType>
        + GetTracked() : std::unordered_map<Bundle, T>
        + GetTrackingCount() : int
        + IsEmpty() : bool
        + Remove(const Bundle&) : bool
        + Size() : size_t
        + AddingBundle(const Bundle&, const BundleEvent&): std::optional<TrackedParamType>
        + ModifiedBundle(const Bundle&, const BundleEvent&, TrackedParamType): void
        + RemovedBundle(const Bundle&, const BundleEvent&, TrackedParamType): void
    }
    interface "BundleTrackerCustomizer" as BTC<T> {
        + AddingBundle(const Bundle&, const BundleEvent&) : std::optional<TrackedParamType> 
        + ModifiedBundle(const Bundle&, const BundleEvent&, TrackedParamType) : void
        + RemovedBundle(const Bundle&, const BundleEvent&, TrackedParamType) : void
    }
    
    package detail {
        class "BundleTrackerPrivate" as BTP<TTT> {
            + context : BundleContext
            + customizer : std::shared_ptr<BundleTrackerCustomizer<TrackedType>>
            + listenerToken : ListenerToken
            + trackedBundle : Atomic<std::shared_ptr<TrackedBundle<TTT>>>
            + Tracked() : std::shared_pointer<TrackedBundle<TTT>>
            + GetInitialBundles(uint32_t stateMask) : std::vector<Bundle>
            + GetBundles_unlocked(std::vector<Bundle>&, TrackedBundle<TTT>* t) const : void
            - q_func() : BundleTracker<T>*
            - q_func() const : const BundleTracker<T>*
            - q_ptr : BundleTracker<T>*
        }
        interface "TrackedBundleListener" as TBL {
            + BundleChanged(const BundleEvent&) : void
        }
        class "TrackedBundle" as TB<TTT> {
            - latch : CounterLatch
            - bundleTracker : BundleTracker<T>*
            - customizer : BundleTrackerCustomizer<T>*

            - BundleChanged(const BundleEvent&) : void
            - Modified() : void
            - CustomizerAdding(const Bundle&, const BundleEvent&) : std::optional<TrackedParamType>
            - CustomzierModified(const Bundle&, const BundleEvent&, TrackedParamType) : void
            - CustomzierRemoved(const Bundle&, const BundleEvent&, TrackedParamType) : void
        
        }
        class "TrackedService" as TS
        class "BundleAbstractTracked" as BAT <S, TTT, R> {
            + SetInitial(const std::vector~<S>&) : void
            + TrackInitial() : void
            + Close() : void
            + Track(S, R) : void
            + Untrack(S, R) : void
            + Size_unlocked() : std::size_t
            + IsEmpty_unlocked() : bool
            + GetCustomizedObject_unlocked(S) : std::optional<TrackedParamType>
            + GetTracked_unlocked(std::vector~<S>&) : void
            + Modified() : void
            + GetTrackingCount() : int
            + CopyEntries_unlocked(TrackingMap&) : void
            + CustomizerAdding(S, R&) : std::optional<TrackedParamType>
            + CustomzierModified(S, R&, TrackedParamType&) : void
            + CustomzierRemoved(S, R&, TrackedParamType&) : void
            + TrackAdding(S, R) : void
            + initial : std::list~<S>
            + adding : std::list~<S>
            + closed : std::atmoic<bool>
            - tracked : std::unordered_map<S, TrackedParamType>
            - trackingCount : std::atomic<int>
            - bc : BundleContext
            - CustomizerAddingFinal(S, const std::shared_ptr<TrackedParamType>&) : bool
        }
    }
    BTC <|- - BT
    BT *- - BTP
    BTP o- - BT
    BAT <|- - TB
    TBL <|- - TB
    TB *- - BTP
    BTP o- - BC
    BTP o- - BL
    BTP o- - BTC
    BAT <|- - TS

}
@enduml

PlantUML version 1.2022.5(Sat Apr 30 06:55:52 EDT 2022)
(GPL source distribution)
Java Runtime: Java(TM) SE Runtime Environment
JVM: Java HotSpot(TM) 64-Bit Server VM
Default Encoding: Cp1252
Language: en
Country: US
--></g></svg>