<?xml version="1.0" encoding="UTF-8" standalone="no"?><svg xmlns="http://www.w3.org/2000/svg" xmlns:xlink="http://www.w3.org/1999/xlink" contentStyleType="text/css" height="327px" preserveAspectRatio="none" style="width:514px;height:327px;background:#FFFFFF;" version="1.1" viewBox="0 0 514 327" width="514px" zoomAndPan="magnify"><defs/><g><!--MD5=[0ba5ee7700168656dc1b457c6fe9fdac]
entity Client--><g id="elem_Client"><ellipse cx="103.5" cy="14" fill="#F1F1F1" rx="8" ry="8" style="stroke:#181818;stroke-width:0.5;"/><path d="M103.5,22 L103.5,49 M90.5,30 L116.5,30 M103.5,49 L90.5,64 M103.5,49 L116.5,64 " fill="none" style="stroke:#181818;stroke-width:0.5;"/><text fill="#000000" font-family="sans-serif" font-size="14" lengthAdjust="spacing" textLength="36" x="85.5" y="80.0332">Client</text></g><!--MD5=[12e922f5689a4b39af25c0eb21e26788]
entity BT--><g id="elem_BT"><rect fill="#F1F1F1" height="37.6094" rx="2.5" ry="2.5" style="stroke:#181818;stroke-width:0.5;" width="113" x="227" y="25.5"/><text fill="#000000" font-family="sans-serif" font-size="14" lengthAdjust="spacing" textLength="93" x="237" y="50.0332">BundleTracker</text></g><!--MD5=[92e1b8d0a4b2a37ccd7fcd96c5dfe02c]
entity TB--><g id="elem_TB"><rect fill="#F1F1F1" height="37.6094" rx="2.5" ry="2.5" style="stroke:#181818;stroke-width:0.5;" width="116" x="40.5" y="161.5"/><text fill="#000000" font-family="sans-serif" font-size="14" lengthAdjust="spacing" textLength="96" x="50.5" y="186.0332">TrackedBundle</text></g><!--MD5=[bf47ed657672796465dc76c4ef1ad49d]
entity BAT--><g id="elem_BAT"><rect fill="#F1F1F1" height="37.6094" rx="2.5" ry="2.5" style="stroke:#181818;stroke-width:0.5;" width="168" x="335.5" y="161.5"/><text fill="#000000" font-family="sans-serif" font-size="14" lengthAdjust="spacing" textLength="148" x="345.5" y="186.0332">BundleAbstractTracked</text></g><!--MD5=[6815a7c98912f1a3feb5ab6a43f68320]
entity BTC--><g id="elem_BTC"><rect fill="#F1F1F1" height="37.6094" rx="2.5" ry="2.5" style="stroke:#181818;stroke-width:0.5;" width="183" x="7" y="280"/><text fill="#000000" font-family="sans-serif" font-size="14" lengthAdjust="spacing" textLength="163" x="17" y="304.5332">BundleTrackerCustomizer</text></g><g id="elem_GMN12"><path d="M331.5,277.5 L331.5,320.2031 A0,0 0 0 0 331.5,320.2031 L507.5,320.2031 A0,0 0 0 0 507.5,320.2031 L507.5,287.5 L497.5,277.5 L423.5,277.5 L419.5,199.7 L415.5,277.5 L331.5,277.5 A0,0 0 0 0 331.5,277.5 " fill="#FEFFDD" style="stroke:#181818;stroke-width:0.5;"/><path d="M497.5,277.5 L497.5,287.5 L507.5,287.5 L497.5,277.5 " fill="#FEFFDD" style="stroke:#181818;stroke-width:0.5;"/><text fill="#000000" font-family="sans-serif" font-size="13" lengthAdjust="spacing" textLength="155" x="337.5" y="295.9951">Removed Bundle from map</text><text fill="#000000" font-family="sans-serif" font-size="13" lengthAdjust="spacing" textLength="93" x="337.5" y="312.3467">Increment count</text></g><!--MD5=[6d60a2609ab0a1c9580d799ef3a81eb5]
link Client to BT--><g id="link_Client_BT"><path d="M121.75,44.5 C145.01,44.5 186.4,44.5 221.49,44.5 " fill="none" id="Client-to-BT" style="stroke:#181818;stroke-width:1.0;"/><polygon fill="#181818" points="226.62,44.5,217.62,40.5,221.62,44.5,217.62,48.5,226.62,44.5" style="stroke:#181818;stroke-width:1.0;"/><text fill="#000000" font-family="sans-serif" font-size="13" lengthAdjust="spacing" textLength="69" x="139.75" y="37.9951">1: Remove()</text></g><!--MD5=[a2531f00426be942fe55c529d6d7a04e]
link BT to TB--><g id="link_BT_TB"><path d="M258.55,63.57 C223.24,89.15 159.06,135.63 123.65,161.29 " fill="none" id="BT-TB" style="stroke:#181818;stroke-width:1.0;"/><text fill="#000000" font-family="sans-serif" font-size="13" lengthAdjust="spacing" textLength="84" x="186.5" y="127.9951">2: Check open</text></g><!--MD5=[db06d5436d3370ac98eaeed4eaf978d2]
link BT to BAT--><g id="link_BT_BAT"><path d="M301.84,63.57 C326.58,87.95 370.6,131.32 397.22,157.55 " fill="none" id="BT-to-BAT" style="stroke:#181818;stroke-width:1.0;"/><polygon fill="#181818" points="401.01,161.29,397.4188,152.1192,397.4531,157.776,391.7964,157.8102,401.01,161.29" style="stroke:#181818;stroke-width:1.0;"/><text fill="#000000" font-family="sans-serif" font-size="13" lengthAdjust="spacing" textLength="68" x="368.5" y="127.9951">3: Untrack()</text></g><!--MD5=[de68e8184bd64218e2c79e24a1b0d28a]
reverse link TB to BAT--><g id="link_TB_BAT"><path d="M161.67,180.5 C211.29,180.5 280.85,180.5 335.22,180.5 " fill="none" id="TB-backto-BAT" style="stroke:#181818;stroke-width:1.0;"/><polygon fill="#181818" points="156.63,180.5,165.63,184.5,161.63,180.5,165.63,176.5,156.63,180.5" style="stroke:#181818;stroke-width:1.0;"/><text fill="#000000" font-family="sans-serif" font-size="13" lengthAdjust="spacing" textLength="142" x="175" y="173.9951">4: CustomizerRemoved()</text></g><!--MD5=[94eec27b364eedefe4260f9931564d8a]
link TB to BTC--><g id="link_TB_BTC"><path d="M98.5,199.7 C98.5,219.97 98.5,252.76 98.5,274.83 " fill="none" id="TB-to-BTC" style="stroke:#181818;stroke-width:1.0;"/><polygon fill="#181818" points="98.5,279.92,102.5,270.92,98.5,274.92,94.5,270.92,98.5,279.92" style="stroke:#181818;stroke-width:1.0;"/><text fill="#000000" font-family="sans-serif" font-size="13" lengthAdjust="spacing" textLength="116" x="99.5" y="243.9951">5: RemovedBundle()</text></g><!--MD5=[84c91103197e1af79b8149e9ec8e2bf2]
@startuml manrembundle_diagram
:Client: as Client

rectangle "BundleTracker" as BT
'rectangle "BundleTrackerPrivate" as BTP
rectangle "TrackedBundle" as TB
'rectangle "BundleContext" as BC
rectangle "BundleAbstractTracked" as BAT
rectangle "BundleTrackerCustomizer" as BTC

Client -> BT : 1: Remove()
BT -d- TB : 2: Check open
BT -> BAT : 3: Untrack()
TB <- BAT : 4: CustomizerRemoved()
TB -d-> BTC : 5: RemovedBundle()

note bottom of BAT : Removed Bundle from map\nIncrement count


@enduml

@startuml manrembundle_diagram
:Client: as Client

rectangle "BundleTracker" as BT
rectangle "TrackedBundle" as TB
rectangle "BundleAbstractTracked" as BAT
rectangle "BundleTrackerCustomizer" as BTC

Client -> BT : 1: Remove()
BT -d- TB : 2: Check open
BT -> BAT : 3: Untrack()
TB <- BAT : 4: CustomizerRemoved()
TB -d-> BTC : 5: RemovedBundle()

note bottom of BAT : Removed Bundle from map\nIncrement count


@enduml

PlantUML version 1.2022.5(Sat Apr 30 06:55:52 EDT 2022)
(GPL source distribution)
Java Runtime: Java(TM) SE Runtime Environment
JVM: Java HotSpot(TM) 64-Bit Server VM
Default Encoding: Cp1252
Language: en
Country: US
--></g></svg>