<?xml version="1.0" encoding="UTF-8" standalone="no"?><svg xmlns="http://www.w3.org/2000/svg" xmlns:xlink="http://www.w3.org/1999/xlink" contentStyleType="text/css" height="190px" preserveAspectRatio="none" style="width:1008px;height:190px;background:#FFFFFF;" version="1.1" viewBox="0 0 1008 190" width="1008px" zoomAndPan="magnify"><defs/><g><!--MD5=[77b0ea1454fe7a7546e2e8ed5acd0c75]
entity BE--><g id="elem_BE"><rect fill="#F1F1F1" height="37.6094" rx="2.5" ry="2.5" style="stroke:#181818;stroke-width:0.5;" width="100" x="7" y="8.3564"/><text fill="#000000" font-family="sans-serif" font-size="14" lengthAdjust="spacing" textLength="80" x="17" y="32.8896">BundleEvent</text></g><!--MD5=[7050851d0b859af5d78dd8a93741a497]
entity BL--><g id="elem_BL"><rect fill="#F1F1F1" height="37.6094" rx="2.5" ry="2.5" style="stroke:#181818;stroke-width:0.5;" width="115" x="273.5" y="8.3564"/><text fill="#000000" font-family="sans-serif" font-size="14" lengthAdjust="spacing" textLength="95" x="283.5" y="32.8896">BundleListener</text></g><!--MD5=[92e1b8d0a4b2a37ccd7fcd96c5dfe02c]
entity TB--><g id="elem_TB"><rect fill="#F1F1F1" height="37.6094" rx="2.5" ry="2.5" style="stroke:#181818;stroke-width:0.5;" width="116" x="539" y="8.3564"/><text fill="#000000" font-family="sans-serif" font-size="14" lengthAdjust="spacing" textLength="96" x="549" y="32.8896">TrackedBundle</text></g><!--MD5=[bf47ed657672796465dc76c4ef1ad49d]
entity BAT--><g id="elem_BAT"><rect fill="#F1F1F1" height="37.6094" rx="2.5" ry="2.5" style="stroke:#181818;stroke-width:0.5;" width="168" x="834" y="8.3564"/><text fill="#000000" font-family="sans-serif" font-size="14" lengthAdjust="spacing" textLength="148" x="844" y="32.8896">BundleAbstractTracked</text></g><!--MD5=[6815a7c98912f1a3feb5ab6a43f68320]
entity BTC--><g id="elem_BTC"><rect fill="#F1F1F1" height="37.6094" rx="2.5" ry="2.5" style="stroke:#181818;stroke-width:0.5;" width="183" x="505.5" y="134.8564"/><text fill="#000000" font-family="sans-serif" font-size="14" lengthAdjust="spacing" textLength="163" x="515.5" y="159.3896">BundleTrackerCustomizer</text></g><g id="elem_GMN12"><path d="M851.5,124.3564 L851.5,183.4111 A0,0 0 0 0 851.5,183.4111 L984.5,183.4111 A0,0 0 0 0 984.5,183.4111 L984.5,134.3564 L974.5,124.3564 L922,124.3564 L918,46.4564 L914,124.3564 L851.5,124.3564 A0,0 0 0 0 851.5,124.3564 " fill="#FEFFDD" style="stroke:#181818;stroke-width:0.5;"/><path d="M974.5,124.3564 L974.5,134.3564 L984.5,134.3564 L974.5,124.3564 " fill="#FEFFDD" style="stroke:#181818;stroke-width:0.5;"/><text fill="#000000" font-family="sans-serif" font-size="13" lengthAdjust="spacing" textLength="97" x="857.5" y="142.8516">Bundle is in map</text><text fill="#000000" font-family="sans-serif" font-size="13" lengthAdjust="spacing" textLength="112" x="857.5" y="159.2031">Leaving state mask</text><text fill="#000000" font-family="sans-serif" font-size="13" lengthAdjust="spacing" textLength="93" x="857.5" y="175.5547">Increment count</text></g><!--MD5=[2362f1ef991bbeef86520282c353631e]
link BE to BL--><g id="link_BE_BL"><path d="M107.26,27.3564 C152.57,27.3564 219.4,27.3564 268.21,27.3564 " fill="none" id="BE-to-BL" style="stroke:#181818;stroke-width:1.0;"/><polygon fill="#181818" points="273.48,27.3564,264.48,23.3564,268.48,27.3564,264.48,31.3564,273.48,27.3564" style="stroke:#181818;stroke-width:1.0;"/><text fill="#000000" font-family="sans-serif" font-size="13" lengthAdjust="spacing" textLength="130" x="125.25" y="20.8516">1: Passed into listener</text></g><!--MD5=[55c3e068c1f8961ed2fb97aa58d44eac]
link BL to TB--><g id="link_BL_TB"><path d="M388.72,27.3564 C431.53,27.3564 489.87,27.3564 533.91,27.3564 " fill="none" id="BL-to-TB" style="stroke:#181818;stroke-width:1.0;"/><polygon fill="#181818" points="538.94,27.3564,529.94,23.3564,533.94,27.3564,529.94,31.3564,538.94,27.3564" style="stroke:#181818;stroke-width:1.0;"/><text fill="#000000" font-family="sans-serif" font-size="13" lengthAdjust="spacing" textLength="114" x="406.75" y="20.8516">2: BundleChanged()</text></g><!--MD5=[cacacb7581613e5b42688c4f9585ce2a]
link TB to BAT--><g id="link_TB_BAT"><path d="M655.14,39.7064 C674.41,43.2464 696.04,46.6064 716,48.3564 C752.83,51.5764 793.37,48.6464 828.41,44.0464 " fill="none" id="TB-to-BAT" style="stroke:#181818;stroke-width:1.0;"/><polygon fill="#181818" points="833.54,43.3564,824.0924,40.5739,828.5834,44.0135,825.1437,48.5045,833.54,43.3564" style="stroke:#181818;stroke-width:1.0;"/><text fill="#000000" font-family="sans-serif" font-size="13" lengthAdjust="spacing" textLength="55" x="717" y="44.8516">3: Track()</text></g><!--MD5=[de68e8184bd64218e2c79e24a1b0d28a]
reverse link TB to BAT--><g id="link_TB_BAT"><path d="M660.17,27.3564 C709.79,27.3564 779.35,27.3564 833.72,27.3564 " fill="none" id="TB-backto-BAT" style="stroke:#181818;stroke-width:1.0;"/><polygon fill="#181818" points="655.13,27.3564,664.13,31.3564,660.13,27.3564,664.13,23.3564,655.13,27.3564" style="stroke:#181818;stroke-width:1.0;"/><text fill="#000000" font-family="sans-serif" font-size="13" lengthAdjust="spacing" textLength="142" x="673.5" y="20.8516">4: CustomizerRemoved()</text></g><!--MD5=[94eec27b364eedefe4260f9931564d8a]
link TB to BTC--><g id="link_TB_BTC"><path d="M597,46.4564 C597,68.4064 597,105.4264 597,129.5064 " fill="none" id="TB-to-BTC" style="stroke:#181818;stroke-width:1.0;"/><polygon fill="#181818" points="597,134.7264,601,125.7264,597,129.7264,593,125.7264,597,134.7264" style="stroke:#181818;stroke-width:1.0;"/><text fill="#000000" font-family="sans-serif" font-size="13" lengthAdjust="spacing" textLength="116" x="598" y="90.8516">5: RemovedBundle()</text></g><!--MD5=[0d48b657c22e42a852d5891479f18e69]
@startuml rembundle_diagram

rectangle "BundleEvent" as BE
rectangle "BundleListener" as BL
'rectangle "BundleTracker" as BT
'rectangle "BundleTrackerPrivate" as BTP
rectangle "TrackedBundle" as TB
'rectangle "BundleContext" as BC
rectangle "BundleAbstractTracked" as BAT
rectangle "BundleTrackerCustomizer" as BTC

BE -> BL : 1: Passed into listener
BL -> TB : 2: BundleChanged()
TB -> BAT : 3: Track()
TB <- BAT: 4: CustomizerRemoved()
TB -d-> BTC : 5: RemovedBundle()

note bottom of BAT : Bundle is in map\nLeaving state mask\nIncrement count

@enduml

@startuml rembundle_diagram

rectangle "BundleEvent" as BE
rectangle "BundleListener" as BL
rectangle "TrackedBundle" as TB
rectangle "BundleAbstractTracked" as BAT
rectangle "BundleTrackerCustomizer" as BTC

BE -> BL : 1: Passed into listener
BL -> TB : 2: BundleChanged()
TB -> BAT : 3: Track()
TB <- BAT: 4: CustomizerRemoved()
TB -d-> BTC : 5: RemovedBundle()

note bottom of BAT : Bundle is in map\nLeaving state mask\nIncrement count

@enduml

PlantUML version 1.2022.5(Sat Apr 30 06:55:52 EDT 2022)
(GPL source distribution)
Java Runtime: Java(TM) SE Runtime Environment
JVM: Java HotSpot(TM) 64-Bit Server VM
Default Encoding: Cp1252
Language: en
Country: US
--></g></svg>